# xmcd
# 
# Track frame offsets:
#     150
#     3005
#     27049
#     44606
#     68255
#     92278
#     96677
#     116788
#     140861
#     153959
#     177300
#     209576
#     231705
#     245502
#     250026
# 
# Disc length: 3599
# 
# Revision: 5
# Processed by: cddbd v1.5.2PL0 Copyright (c) Steve Scherf et al.
# Submitted via: BonkEnc v1.0
# 
DISCID=cc0e0d0f
DTITLE=Raiz Coral - Pra Louvar
DYEAR=2004
DGENRE=Gospel and Religious
TTITLE0=Abertura (Singabahamba)
TTITLE1=Pra Louvar
TTITLE2=Caridade
TTITLE3=Dê o seu Melhor
TTITLE4=A Coroa
TTITLE5=Intro Pequena Luz - part. Grupo Puro Louvor
TTITLE6=Pequena Luz - part.  Isabêh - Junior - Jezrrel
TTITLE7=Te Louvo
TTITLE8=Jesus, Breve Vai Voltar
TTITLE9=Bendito - part. Carine Luup
TTITLE10=Jesus Meu Guia É - part. Leonardo Gonçalves
TTITLE11=Tocou-me
TTITLE12=Vem Louvar
TTITLE13=Singabahamba (Reprise)
TTITLE14=Bônus Track (Pequena Luz - Instrumental)
EXTD=Brazilian Gospel Group YEAR: 2004
EXTT0=
EXTT1=
EXTT2=
EXTT3=
EXTT4=
EXTT5=Participação Especial - Grupo Puro Louvor
EXTT6=Participação Especial -  Isabêh, Junior, Jezrrel
EXTT7=
EXTT8=
EXTT9=Participação Especial - Carine Luup
EXTT10=Participação Especial - Leonardo Gonçalves
EXTT11=
EXTT12=
EXTT13=
EXTT14=Instrumental
PLAYORDER=
